<svg id="Layer_1" data-name="Layer 1" xmlns="http://www.w3.org/2000/svg" viewBox="0 0 70 70"><defs><style>.cls-1{fill:#ef3f3f;}.cls-2,.cls-3{fill:#fff;}.cls-3{fill-rule:evenodd;}</style></defs><title>logo</title><rect class="cls-1" width="70" height="70"/><path class="cls-2" d="M708.93,199a1,1,0,0,1-.7.16H707a1.1,1.1,0,0,1-.71-0.16,1,1,0,0,1-.18-0.7v-2.32h-2.7v2.73q0,2.61,2.76,2.61H709q2.79,0,2.79-2.61v-5.35q0-2.61-2.73-2.61h-2.17a1.1,1.1,0,0,1-.71-0.16,1,1,0,0,1-.18-0.7v-4.13a1,1,0,0,1,.18-0.7,1.11,1.11,0,0,1,.71-0.16h1.25a1.11,1.11,0,0,1,.71.16,1,1,0,0,1,.18.7V188h2.7V185.3q0-2.61-2.76-2.61h-2.91q-2.76,0-2.76,2.61v4.9q0,2.64,2.7,2.64h2.2a0.68,0.68,0,0,1,.86.86v4.55A1,1,0,0,1,708.93,199Z" transform="translate(-680.75 -168.76)"/><path class="cls-2" d="M722.93,185l1.69,9.8h-3.24Zm5.5,16.28-3.54-18.6H721l-3.3,18.6h2.67l0.68-4.31H725l0.74,4.31h2.7Z" transform="translate(-680.75 -168.76)"/><path class="cls-2" d="M712,207.58q0-2.61-2.76-2.61h-3.18q-2.76,0-2.76,2.61V221q0,2.64,2.76,2.64h3.18q2.76,0,2.76-2.64v-7h-4.19v2.08h1.49v4.55a1,1,0,0,1-.18.7,1.1,1.1,0,0,1-.71.16h-1.52a1.1,1.1,0,0,1-.71-0.16,1,1,0,0,1-.18-0.7V207.94a1,1,0,0,1,.18-0.7,1.11,1.11,0,0,1,.71-0.16h1.52a1.1,1.1,0,0,1,.71.16,1,1,0,0,1,.18.7v2.47H712v-2.82Z" transform="translate(-680.75 -168.76)"/><path class="cls-2" d="M721.89,215h4.28v-2.17h-4.28v-5.73h5.17V205h-7.87v18.6h8.08V221.4h-5.38V215Z" transform="translate(-680.75 -168.76)"/><path class="cls-3" d="M703.46,226.56h23.77v2.38H703.46v-2.38Z" transform="translate(-680.75 -168.76)"/></svg>